<svg width="617" height="83" viewBox="0 0 617 83" fill="none" xmlns="http://www.w3.org/2000/svg">
<path d="M10.3926 35.6992L38.3418 45.8066V57.7158L0.373047 41.6318V33.1943L10.3926 35.6992ZM38.3418 27.4375L10.3486 37.7207L0.373047 40.0938V31.6562L38.3418 15.5723V27.4375ZM571.662 0.015625L548.195 69.4932H538.791L562.258 0.015625H571.662ZM606.203 37.457L578.034 27.3936V15.5723L616.311 31.6562V40.1377L606.203 37.457ZM578.034 45.8945L606.247 35.6113L616.311 33.1943V41.6318L578.034 57.7158V45.8945Z" fill="#1BB298"/>
<path d="M96.9209 41.1924H80.6172V30.9092H96.9209C99.4404 30.9092 101.491 30.499 103.073 29.6787C104.655 28.8291 105.812 27.6572 106.545 26.1631C107.277 24.6689 107.644 22.9844 107.644 21.1094C107.644 19.2051 107.277 17.4326 106.545 15.792C105.812 14.1514 104.655 12.833 103.073 11.8369C101.491 10.8408 99.4404 10.3428 96.9209 10.3428H85.1875V64H72.0039V0.015625H96.9209C101.931 0.015625 106.223 0.923828 109.797 2.74023C113.4 4.52734 116.154 7.00293 118.059 10.167C119.963 13.3311 120.915 16.9492 120.915 21.0215C120.915 25.1523 119.963 28.7266 118.059 31.7441C116.154 34.7617 113.4 37.0908 109.797 38.7314C106.223 40.3721 101.931 41.1924 96.9209 41.1924ZM141.877 26.8223V64H129.221V16.4512H141.13L141.877 26.8223ZM156.203 16.1436L155.983 27.877C155.368 27.7891 154.621 27.7158 153.742 27.6572C152.893 27.5693 152.116 27.5254 151.413 27.5254C149.626 27.5254 148.073 27.7598 146.755 28.2285C145.466 28.668 144.382 29.3271 143.503 30.2061C142.653 31.085 142.009 32.1543 141.569 33.4141C141.159 34.6738 140.925 36.1094 140.866 37.7207L138.317 36.9297C138.317 33.8535 138.625 31.0264 139.24 28.4482C139.855 25.8408 140.749 23.5703 141.921 21.6367C143.122 19.7031 144.587 18.209 146.315 17.1543C148.044 16.0996 150.021 15.5723 152.248 15.5723C152.951 15.5723 153.669 15.6309 154.401 15.748C155.134 15.8359 155.734 15.9678 156.203 16.1436ZM158.84 40.709V39.7861C158.84 36.2998 159.338 33.0918 160.334 30.1621C161.33 27.2031 162.78 24.6396 164.685 22.4717C166.589 20.3037 168.933 18.6191 171.716 17.418C174.499 16.1875 177.692 15.5723 181.296 15.5723C184.899 15.5723 188.107 16.1875 190.92 17.418C193.732 18.6191 196.091 20.3037 197.995 22.4717C199.929 24.6396 201.394 27.2031 202.39 30.1621C203.386 33.0918 203.884 36.2998 203.884 39.7861V40.709C203.884 44.166 203.386 47.374 202.39 50.333C201.394 53.2627 199.929 55.8262 197.995 58.0234C196.091 60.1914 193.747 61.876 190.964 63.0771C188.181 64.2783 184.987 64.8789 181.384 64.8789C177.78 64.8789 174.572 64.2783 171.76 63.0771C168.977 61.876 166.618 60.1914 164.685 58.0234C162.78 55.8262 161.33 53.2627 160.334 50.333C159.338 47.374 158.84 44.166 158.84 40.709ZM171.496 39.7861V40.709C171.496 42.7012 171.672 44.5615 172.023 46.29C172.375 48.0186 172.932 49.542 173.693 50.8604C174.484 52.1494 175.51 53.1602 176.77 53.8926C178.029 54.625 179.567 54.9912 181.384 54.9912C183.142 54.9912 184.65 54.625 185.91 53.8926C187.17 53.1602 188.181 52.1494 188.942 50.8604C189.704 49.542 190.261 48.0186 190.612 46.29C190.993 44.5615 191.184 42.7012 191.184 40.709V39.7861C191.184 37.8525 190.993 36.0361 190.612 34.3369C190.261 32.6084 189.689 31.085 188.898 29.7666C188.137 28.4189 187.126 27.3643 185.866 26.6025C184.606 25.8408 183.083 25.46 181.296 25.46C179.509 25.46 177.985 25.8408 176.726 26.6025C175.495 27.3643 174.484 28.4189 173.693 29.7666C172.932 31.085 172.375 32.6084 172.023 34.3369C171.672 36.0361 171.496 37.8525 171.496 39.7861ZM241.765 16.4512H253.234V62.418C253.234 66.7539 252.268 70.4307 250.334 73.4482C248.43 76.4951 245.764 78.7949 242.336 80.3477C238.908 81.9297 234.924 82.7207 230.383 82.7207C228.391 82.7207 226.281 82.457 224.055 81.9297C221.857 81.4023 219.748 80.582 217.727 79.4688C215.734 78.3555 214.064 76.9492 212.717 75.25L218.298 67.7793C219.763 69.4785 221.462 70.7969 223.396 71.7344C225.329 72.7012 227.468 73.1846 229.812 73.1846C232.097 73.1846 234.03 72.7598 235.612 71.9102C237.194 71.0898 238.41 69.874 239.26 68.2627C240.109 66.6807 240.534 64.7617 240.534 62.5059V27.4375L241.765 16.4512ZM209.772 40.7969V39.874C209.772 36.2412 210.212 32.9453 211.091 29.9863C211.999 26.998 213.273 24.4346 214.914 22.2959C216.584 20.1572 218.605 18.502 220.979 17.3301C223.352 16.1582 226.032 15.5723 229.021 15.5723C232.185 15.5723 234.836 16.1582 236.975 17.3301C239.113 18.502 240.871 20.1719 242.248 22.3398C243.625 24.4785 244.694 27.0127 245.456 29.9424C246.247 32.8428 246.862 36.0215 247.302 39.4785V41.5C246.862 44.8105 246.203 47.8867 245.324 50.7285C244.445 53.5703 243.288 56.0605 241.853 58.1992C240.417 60.3086 238.63 61.9492 236.491 63.1211C234.382 64.293 231.862 64.8789 228.933 64.8789C226.003 64.8789 223.352 64.2783 220.979 63.0771C218.635 61.876 216.628 60.1914 214.958 58.0234C213.288 55.8555 211.999 53.3066 211.091 50.377C210.212 47.4473 209.772 44.2539 209.772 40.7969ZM222.429 39.874V40.7969C222.429 42.7598 222.619 44.5908 223 46.29C223.381 47.9893 223.967 49.498 224.758 50.8164C225.578 52.1055 226.589 53.1162 227.79 53.8486C229.021 54.5518 230.471 54.9033 232.141 54.9033C234.455 54.9033 236.345 54.4199 237.81 53.4531C239.274 52.457 240.373 51.0947 241.105 49.3662C241.838 47.6377 242.263 45.6455 242.38 43.3896V37.6328C242.321 35.7871 242.072 34.1318 241.633 32.667C241.193 31.1729 240.578 29.8984 239.787 28.8438C238.996 27.7891 237.971 26.9688 236.711 26.3828C235.451 25.7969 233.957 25.5039 232.229 25.5039C230.559 25.5039 229.108 25.8848 227.878 26.6465C226.677 27.3789 225.666 28.3896 224.846 29.6787C224.055 30.9678 223.454 32.4912 223.044 34.249C222.634 35.9775 222.429 37.8525 222.429 39.874ZM275.734 26.8223V64H263.078V16.4512H274.987L275.734 26.8223ZM290.061 16.1436L289.841 27.877C289.226 27.7891 288.479 27.7158 287.6 27.6572C286.75 27.5693 285.974 27.5254 285.271 27.5254C283.483 27.5254 281.931 27.7598 280.612 28.2285C279.323 28.668 278.239 29.3271 277.36 30.2061C276.511 31.085 275.866 32.1543 275.427 33.4141C275.017 34.6738 274.782 36.1094 274.724 37.7207L272.175 36.9297C272.175 33.8535 272.482 31.0264 273.098 28.4482C273.713 25.8408 274.606 23.5703 275.778 21.6367C276.979 19.7031 278.444 18.209 280.173 17.1543C281.901 16.0996 283.879 15.5723 286.105 15.5723C286.809 15.5723 287.526 15.6309 288.259 15.748C288.991 15.8359 289.592 15.9678 290.061 16.1436ZM320.207 53.2773V32.0957C320.207 30.5723 319.958 29.2686 319.46 28.1846C318.962 27.0713 318.186 26.207 317.131 25.5918C316.105 24.9766 314.772 24.6689 313.132 24.6689C311.726 24.6689 310.51 24.918 309.484 25.416C308.459 25.8848 307.668 26.5732 307.111 27.4814C306.555 28.3604 306.276 29.4004 306.276 30.6016H293.62C293.62 28.5801 294.089 26.6611 295.026 24.8447C295.964 23.0283 297.326 21.4316 299.113 20.0547C300.9 18.6484 303.024 17.5498 305.485 16.7588C307.976 15.9678 310.759 15.5723 313.835 15.5723C317.526 15.5723 320.808 16.1875 323.679 17.418C326.55 18.6484 328.806 20.4941 330.446 22.9551C332.116 25.416 332.951 28.4922 332.951 32.1836V52.5303C332.951 55.1377 333.112 57.2764 333.435 58.9463C333.757 60.5869 334.226 62.0225 334.841 63.2529V64H322.053C321.438 62.7109 320.969 61.0996 320.646 59.166C320.354 57.2031 320.207 55.2402 320.207 53.2773ZM321.877 35.04L321.965 42.2031H314.89C313.22 42.2031 311.77 42.3936 310.539 42.7744C309.309 43.1553 308.298 43.6973 307.507 44.4004C306.716 45.0742 306.13 45.8652 305.749 46.7734C305.397 47.6816 305.222 48.6777 305.222 49.7617C305.222 50.8457 305.471 51.8271 305.969 52.7061C306.467 53.5557 307.185 54.2295 308.122 54.7275C309.06 55.1963 310.158 55.4307 311.418 55.4307C313.322 55.4307 314.978 55.0498 316.384 54.2881C317.79 53.5264 318.874 52.5889 319.636 51.4756C320.427 50.3623 320.837 49.3076 320.866 48.3115L324.206 53.6729C323.737 54.874 323.093 56.1191 322.272 57.4082C321.481 58.6973 320.471 59.9131 319.24 61.0557C318.01 62.1689 316.53 63.0918 314.802 63.8242C313.073 64.5273 311.022 64.8789 308.649 64.8789C305.632 64.8789 302.893 64.2783 300.432 63.0771C298 61.8467 296.066 60.1621 294.631 58.0234C293.225 55.8555 292.521 53.3945 292.521 50.6406C292.521 48.1504 292.99 45.9385 293.928 44.0049C294.865 42.0713 296.242 40.4453 298.059 39.127C299.904 37.7793 302.204 36.7686 304.958 36.0947C307.712 35.3916 310.905 35.04 314.538 35.04H321.877ZM355.363 26.2949V64H342.663V16.4512H354.572L355.363 26.2949ZM353.605 38.5557H350.09C350.09 35.2451 350.485 32.1982 351.276 29.415C352.097 26.6025 353.283 24.1709 354.836 22.1201C356.418 20.04 358.366 18.4287 360.681 17.2861C362.995 16.1436 365.676 15.5723 368.723 15.5723C370.832 15.5723 372.766 15.8945 374.523 16.5391C376.281 17.1543 377.79 18.1357 379.05 19.4834C380.339 20.8018 381.335 22.5303 382.038 24.6689C382.741 26.7783 383.093 29.3125 383.093 32.2715V64H370.437V33.6777C370.437 31.5098 370.144 29.8398 369.558 28.668C368.972 27.4961 368.137 26.6758 367.053 26.207C365.998 25.7383 364.724 25.5039 363.229 25.5039C361.589 25.5039 360.153 25.8408 358.923 26.5146C357.722 27.1885 356.726 28.126 355.935 29.3271C355.144 30.499 354.558 31.876 354.177 33.458C353.796 35.04 353.605 36.7393 353.605 38.5557ZM381.906 37.1055L377.38 37.6768C377.38 34.5713 377.761 31.6855 378.522 29.0195C379.313 26.3535 380.471 24.0098 381.994 21.9883C383.547 19.9668 385.466 18.3994 387.751 17.2861C390.036 16.1436 392.673 15.5723 395.661 15.5723C397.946 15.5723 400.026 15.9092 401.901 16.583C403.776 17.2275 405.373 18.2676 406.691 19.7031C408.039 21.1094 409.064 22.9551 409.768 25.2402C410.5 27.5254 410.866 30.3232 410.866 33.6338V64H398.166V33.6338C398.166 31.4365 397.873 29.7666 397.287 28.624C396.73 27.4521 395.91 26.6465 394.826 26.207C393.771 25.7383 392.512 25.5039 391.047 25.5039C389.523 25.5039 388.19 25.8115 387.048 26.4268C385.905 27.0127 384.953 27.833 384.191 28.8877C383.43 29.9424 382.858 31.1729 382.478 32.5791C382.097 33.9561 381.906 35.4648 381.906 37.1055ZM418.645 40.709V39.7861C418.645 36.2998 419.143 33.0918 420.139 30.1621C421.135 27.2031 422.585 24.6396 424.489 22.4717C426.394 20.3037 428.737 18.6191 431.521 17.418C434.304 16.1875 437.497 15.5723 441.101 15.5723C444.704 15.5723 447.912 16.1875 450.725 17.418C453.537 18.6191 455.896 20.3037 457.8 22.4717C459.733 24.6396 461.198 27.2031 462.194 30.1621C463.19 33.0918 463.688 36.2998 463.688 39.7861V40.709C463.688 44.166 463.19 47.374 462.194 50.333C461.198 53.2627 459.733 55.8262 457.8 58.0234C455.896 60.1914 453.552 61.876 450.769 63.0771C447.985 64.2783 444.792 64.8789 441.188 64.8789C437.585 64.8789 434.377 64.2783 431.564 63.0771C428.781 61.876 426.423 60.1914 424.489 58.0234C422.585 55.8262 421.135 53.2627 420.139 50.333C419.143 47.374 418.645 44.166 418.645 40.709ZM431.301 39.7861V40.709C431.301 42.7012 431.477 44.5615 431.828 46.29C432.18 48.0186 432.736 49.542 433.498 50.8604C434.289 52.1494 435.314 53.1602 436.574 53.8926C437.834 54.625 439.372 54.9912 441.188 54.9912C442.946 54.9912 444.455 54.625 445.715 53.8926C446.975 53.1602 447.985 52.1494 448.747 50.8604C449.509 49.542 450.065 48.0186 450.417 46.29C450.798 44.5615 450.988 42.7012 450.988 40.709V39.7861C450.988 37.8525 450.798 36.0361 450.417 34.3369C450.065 32.6084 449.494 31.085 448.703 29.7666C447.941 28.4189 446.931 27.3643 445.671 26.6025C444.411 25.8408 442.888 25.46 441.101 25.46C439.313 25.46 437.79 25.8408 436.53 26.6025C435.3 27.3643 434.289 28.4189 433.498 29.7666C432.736 31.085 432.18 32.6084 431.828 34.3369C431.477 36.0361 431.301 37.8525 431.301 39.7861ZM499.592 52.6182V16.4512H512.248V64H500.339L499.592 52.6182ZM500.998 42.8623L504.733 42.7744C504.733 45.9385 504.367 48.8828 503.635 51.6074C502.902 54.3027 501.804 56.6465 500.339 58.6387C498.874 60.6016 497.028 62.1396 494.802 63.2529C492.575 64.3369 489.953 64.8789 486.936 64.8789C484.621 64.8789 482.482 64.5566 480.52 63.9121C478.586 63.2383 476.916 62.1982 475.51 60.792C474.133 59.3564 473.049 57.5254 472.258 55.2988C471.496 53.043 471.115 50.333 471.115 47.1689V16.4512H483.771V47.2568C483.771 48.6631 483.933 49.8496 484.255 50.8164C484.606 51.7832 485.09 52.5742 485.705 53.1895C486.32 53.8047 487.038 54.2441 487.858 54.5078C488.708 54.7715 489.646 54.9033 490.671 54.9033C493.278 54.9033 495.329 54.376 496.823 53.3213C498.347 52.2666 499.416 50.8311 500.031 49.0146C500.676 47.1689 500.998 45.1182 500.998 42.8623Z" fill="white"/>
</svg>
